<svg xmlns="http://www.w3.org/2000/svg" width="63" height="21" fill="none" viewBox="0 0 63 21">
  <g clip-path="url(#a)">
    <g clip-path="url(#b)">
      <path fill="#fff" fill-opacity=".8" d="m26.968.957-10.381 7.79a8.874 8.874 0 0 0-3.205-4.84 9.26 9.26 0 0 0-5.574-1.908H.358v17.904h7.45a9.023 9.023 0 0 0 5.614-1.856 8.638 8.638 0 0 0 3.165-4.89l10.38 7.788 10.382-7.789v6.748h11.71v-3.635h-7.724V1.987h-4.26v6.748l-9.847 7.789-2.123-1.817 4.793-3.635 5.054-3.888-2.93-2.338-9.848 7.523-2.123-1.817 9.847-7.269-2.93-2.338v.012ZM4.343 5.621h3.191a4.7 4.7 0 0 1 1.913.412 5.14 5.14 0 0 1 1.614 1.139 5.46 5.46 0 0 1 1.117 1.732 5.825 5.825 0 0 1 0 4.228 5.605 5.605 0 0 1-1.055 1.744c-.444.506-.99.918-1.602 1.212a4.716 4.716 0 0 1-2.024.448H4.343V5.62ZM62.345 16.27v3.635H50.648V1.986h4.259V16.27h7.45-.012Z"/>
    </g>
  </g>
  <defs>
    <clipPath id="a">
      <path fill="#fff" d="M0 0h62v20H0z" transform="translate(.357 .945)"/>
    </clipPath>
    <clipPath id="b">
      <path fill="#fff" d="M0 0h62v20H0z" transform="translate(.357 .945)"/>
    </clipPath>
  </defs>
</svg>
