<svg xmlns="http://www.w3.org/2000/svg" width="121" height="24" fill="none" viewBox="0 0 121 24">
  <g clip-path="url(#a)">
    <g clip-path="url(#b)">
      <path fill="#CECCD3" fill-rule="evenodd" d="m10.71 16.242 3.34 3.413-2.787 2.969a2.216 2.216 0 0 1-3.273 0l-6.955-7.408c-.904-.963-.904-2.523 0-3.486a2.216 2.216 0 0 1 3.273 0l5.318 5.665 1.083-1.153Zm.867-.925 2.96-3.152 3.272 3.486-2.725 2.902-3.506-3.236Z" clip-rule="evenodd"/>
      <path fill="#CECCD3" fill-rule="evenodd" d="m24.966 18.488-3.488-3.258 8.195-8.728a2.216 2.216 0 0 1 3.273 0c.904.963.904 2.523 0 3.486l-7.98 8.5Zm-1.085 1.155-2.798 2.98a2.216 2.216 0 0 1-3.273 0L5.945 9.988c-.904-.963-.904-2.524 0-3.486a2.215 2.215 0 0 1 3.273 0l10.228 10.894 1.15-1.226 3.285 3.474Z" clip-rule="evenodd"/>
      <path fill="#CECCD3" fill-rule="evenodd" d="m19.937 14.43 3.258-3.501 6.07 6.466 5.318-5.664a2.216 2.216 0 0 1 3.273 0c.904.963.904 2.524 0 3.486l-6.954 7.407a2.216 2.216 0 0 1-3.272 0l-7.693-8.193Zm-1.35-1.437-7.732-8.236c-.904-.962-.904-2.523 0-3.485a2.215 2.215 0 0 1 3.273 0l7.74 8.244-3.28 3.477Z" clip-rule="evenodd"/>
      <path fill="#CECCD3" fill-rule="evenodd" d="M28.036 1.273a2.216 2.216 0 0 0-3.273 0L14.536 12.165l3.273 3.486L28.036 4.76c.904-.963.904-2.524 0-3.486Z" clip-rule="evenodd"/>
      <path fill="#fff" fill-opacity=".8" fill-rule="evenodd" d="M50.515 2.975h-2.846v17.806h10.428v-2.69h-7.582V2.976Zm13.74 5.354c1.731 0 2.892.751 3.53 1.672l.136-1.43h2.46v12.21h-2.46l-.136-1.43c-.638.921-1.799 1.672-3.53 1.672-3.118 0-5.236-2.689-5.236-6.347 0-3.682 2.118-6.347 5.237-6.347Zm.593 2.568c-1.776 0-3.051 1.478-3.051 3.779s1.275 3.78 3.05 3.78c1.367 0 2.187-.776 2.801-1.818v-3.924c-.614-1.042-1.434-1.817-2.8-1.817Zm12.42-6.42h-2.732v4.094h-2.163v2.471h2.163v5.427c0 2.955 1.662 4.554 4.28 4.554 1.139 0 1.981-.34 2.55-.727l-.728-2.277c-.342.218-.842.388-1.571.388-1.07 0-1.799-.727-1.799-1.963v-5.402h3.461v-2.47h-3.46V4.476Zm9.416 0H83.95v4.094h-2.16v2.471h2.162v5.427c0 2.955 1.663 4.554 4.28 4.554 1.14 0 1.982-.34 2.55-.727l-.728-2.277c-.341.218-.842.388-1.57.388-1.07 0-1.8-.727-1.8-1.963v-5.402h3.461v-2.47h-3.46V4.476Zm8.663 4.094h-2.732v12.21h2.732V8.57Zm-1.366-5.693c-.956 0-1.684.751-1.684 1.793 0 1.042.728 1.793 1.684 1.793.98 0 1.708-.751 1.708-1.793 0-1.042-.729-1.793-1.708-1.793Zm9.62 5.451c-3.529 0-5.874 2.665-5.874 6.347 0 3.658 2.368 6.347 5.897 6.347 2.072 0 3.643-.993 4.668-2.689l-1.958-1.623c-.547.969-1.435 1.768-2.687 1.768-2.026 0-3.142-1.671-3.142-3.803 0-2.156 1.07-3.803 3.119-3.803 1.275 0 2.118.775 2.641 1.744l1.981-1.599c-1.024-1.696-2.55-2.689-4.645-2.689Zm11.374 0c3.529 0 5.259 2.81 5.259 6.226v1.017h-8.105c.068 1.938 1.161 3.004 3.073 3.004 1.344 0 2.323-.63 2.846-1.405l1.89 1.648c-1.138 1.453-2.641 2.204-4.758 2.204-3.552 0-5.829-2.665-5.829-6.323 0-3.682 2.322-6.371 5.624-6.371Zm-.046 2.326c-1.616 0-2.709 1.138-2.8 2.834h5.418c-.068-1.672-.979-2.834-2.618-2.834Z" clip-rule="evenodd"/>
    </g>
  </g>
  <defs>
    <clipPath id="a">
      <path fill="#fff" d="M0 0h120v22.8H0z" transform="translate(.357 .545)"/>
    </clipPath>
    <clipPath id="b">
      <path fill="#fff" d="M0 0h120v22.8H0z" transform="translate(.357 .545)"/>
    </clipPath>
  </defs>
</svg>
