<svg xmlns="http://www.w3.org/2000/svg" width="81" height="26" fill="none" viewBox="0 0 81 26">
  <g clip-path="url(#a)">
    <g clip-path="url(#b)">
      <path fill="#fff" fill-opacity=".8" d="M49.08 14.452s-.161-.622-.161-1.083V6.154h2.734v13.897L42.9 12.39c-.469-.421-.746-.89-.746-.89s.139.517.139.965l-.003 7.271h-2.736V5.895l8.675 7.507c.465.416.851 1.05.851 1.05Zm24.758-8.297c4.333 0 5.443 1.806 5.443 4.401 0 1.881-1.31 3.724-3.955 3.942l-.29.015s.257.048.524.32l4.797 4.903H76.65l-6.698-7.186h3.335c2.987 0 3.074-1.663 3.095-2.082.056-1.08-.271-1.943-2.55-1.943H70.02v11.211h-2.842V6.156h6.66ZM52.883 13.14c0-5.69 4.507-7.185 8.295-7.185 1.517 0 2.86.144 4.274.46l.004 2.886c-.813-.265-2.445-.844-4.277-.844-3.592 0-5.336 1.474-5.336 4.682 0 2.629 1.88 4.303 5.336 4.303 1.832 0 3.666-.46 4.555-.807l-.006 2.799a21.58 21.58 0 0 1-4.55.51c-4.046 0-8.295-2.078-8.295-6.804ZM22.112 6.505l2.667 2.654a6.011 6.011 0 0 0-.256.129 5.102 5.102 0 0 0-.558.36c-.44.319-1.013.829-1.746 1.664l-5.212 5.829c-.893.997-1.8 1.788-2.645 2.206l-2.668-2.655c.073-.036.157-.076.254-.13.154-.084.338-.2.559-.359.438-.321 1.013-.828 1.746-1.665l5.211-5.819c.894-.996 1.803-1.796 2.648-2.214Z"/>
      <path fill="#fff" fill-opacity=".8" d="M11.789 20.593c1.179 0 2.262-.246 2.997-.65a8.74 8.74 0 0 0 1.228-.843c.411-.338.994-.866 1.486-1.42l5.217-5.811c1.316-1.465 2.107-1.917 2.587-2.095l2.676 2.679c-.558.63-7.219 8.127-7.219 8.127a24.223 24.223 0 0 1-1.257 1.333c-.313.304-.847.758-1.123.971-1.567 1.213-3.659 2.196-6.477 2.196C5.52 25.08.357 19.59.357 13.266.357 5.423 6.157.871 11.44.871a10.53 10.53 0 0 1 3.945.606c.95.34 1.666.753 2.186 1.034-.614.416-1.21.984-2.19 2.09l-1.07 1.216a7.091 7.091 0 0 0-2.743-.458c-3.389.106-7.096 3.009-6.962 7.771.124 4.453 3.598 7.463 7.184 7.463Z"/>
      <path fill="#fff" fill-opacity=".8" d="M21.653 5.947a8.946 8.946 0 0 0-1.23.844c-.41.339-.992.866-1.486 1.418l-5.216 5.813c-1.316 1.465-2.107 1.916-2.587 2.094L8.458 13.44c.56-.633 7.22-8.127 7.22-8.127a24.95 24.95 0 0 1 1.257-1.335c.313-.304.847-.756 1.125-.971C19.624 1.794 21.72.81 24.537.81 30.92.81 36.08 6.302 36.08 12.623c0 7.847-5.798 12.396-11.081 12.396-1.618.052-2.919-.236-3.944-.608-.952-.34-1.672-.755-2.19-1.034.65-.463 1.205-.971 2.193-2.087l1.07-1.215a7.15 7.15 0 0 0 2.743.457c3.388-.106 7.096-3.012 6.963-7.774-.126-4.45-3.602-7.462-7.186-7.462-1.18 0-2.26.248-2.996.651Z"/>
    </g>
  </g>
  <defs>
    <clipPath id="a">
      <path fill="#fff" d="M0 0h80v24.27H0z" transform="translate(.357 .81)"/>
    </clipPath>
    <clipPath id="b">
      <path fill="#fff" d="M0 0h80v24.27H0z" transform="translate(.357 .81)"/>
    </clipPath>
  </defs>
</svg>
