<svg xmlns="http://www.w3.org/2000/svg" width="144" height="14" fill="none" viewBox="0 0 144 14">
  <g clip-path="url(#a)">
    <g clip-path="url(#b)">
      <path fill="#fff" fill-opacity=".8" d="M27.956 12.643v-.338c-.055 0-3.597.193-5.341.193-2.29 0-5.56-.048-5.56-.048l-15.042-.096v-.29l15.097-.049s3.27.049 5.559.049h5.287c0-.145-.055-.387-.055-.58-.054 0-3.542.242-5.232.242-2.289 0-5.56-.145-5.56-.145H13.24l-5.123-.145h-6.05c0-.048.055-.241.055-.29.218.049.381.097 1.144.097.981 0 1.417-.193 1.417-.193s.709.193 1.635.193c.436 0 1.418-.386 2.017-.242.981.242 1.363-.144 1.363-.144s.218.241.654.338c.327.048.763-.145.763-.145s.545.338 2.125.338c1.908 0 2.453-.918 2.453-.918h.054s-.054.242.055.435c.218.386.817.434.817.434-.054-1.062.436-1.786.436-1.786h.055l-.11.29c-.217.772.164 1.448.164 1.448l.164-.096s-.164-.483 0-1.16c.163-.675.436-1.013.436-1.013h.109s-.164.53-.164.917c0 .338.218 1.159.927 1.4.545.194.98-.241.98-.241s1.2.29 2.181.29c2.344 0 2.889-.338 2.889-.338s.163.241 1.362.241c.709 0 1.254-.048 1.58-.096.11 0 .164 0 .219-.049 0-.193-.055-.338-.11-.53-.653-3.236-2.779-6.037-5.722-7.824l-.163.435c2.888 1.69 5.014 4.346 5.613 7.485-.327.096-.817.241-1.417.241-.926 0-1.144-.241-1.144-.241s-.327.193-.927.193c-.545 0-.926-.338-.926-.338s-.545.483-1.526.483c-1.145 0-1.745-.628-1.963-.918a3.127 3.127 0 0 1-.327-.53h-.054c0 .096.054.24.109.385.163.387.272.483.327.58.054.048.109.193-.055.241-.109.049-.163-.048-.218-.096-.054-.097-.272-.338-.381-.725-.164-.434-.164-.724-.218-.965h-.11c-.054.193-.054.53-.054.917.055.435.164.724.218.821 0 0 .055.048.055.097 0 .144-.11.193-.218.193-.11 0-.218-.097-.273-.194-.49-.724.11-2.172.273-2.607.272-.628.327-1.256.327-1.256s.327-.482.49-.82c.218-.435.382-.821.546-.966.218-.193.599-.676.98-1.304.055-.096.382-.773.437-.917.054-.097.108-.242.163-.338.163-.58.327-1.256.327-1.352 0-.145-.272-.242-.272-.242s-.273-.096-.436-.096c-.11 0-.218.096-.328.144-.163.049-.218 0-.218 0s-.218-.096-.326-.048c-.11 0-.218.145-.328.145-.163.048-.218.048-.218.048s-.163-.048-.272-.048c-.11.048-.218.097-.436.241A15.623 15.623 0 0 0 14.33.716C6.863.716.76 6.028.65 12.643v.338h27.306v-.338ZM10.57 10.23c-.055 0 0-.048-.055-.048.382-1.063 1.254-3.236 2.67-4.878.164.049.273.145.437.194-1.036 1.014-2.398 2.993-3.052 4.732Zm.817.338c.273-.966.981-2.994 2.507-4.926.164.097.273.145.436.242-1.035 1.207-2.289 3.139-2.834 4.732-.054 0-.054-.048-.109-.048Zm1.09.241h-.054c.218-.772.817-2.8 2.234-4.78.164.096.273.145.382.241-.981 1.304-2.071 3.09-2.562 4.54Zm1.036 0h-.055c.218-.724.709-2.51 1.908-4.297.163.096.327.193.381.29-.872 1.158-1.798 2.704-2.234 4.007Zm3.597-3.235c-.273 0-.654-.097-.763-.29.054.338.49.628.872.628-.11 0-.164.048-.273.048-.49 0-.926-.386-.926-.82v-.194c.381.29 1.199.676 1.69.097v.048c-.055.242-.328.483-.6.483Zm1.526-1.883c0 .145-.11.193-.218.241-.055.048-.218.097-.218.145h-.055s-.054-.048-.109-.048v-.193s-.054-.097 0-.194c0-.144.164-.241.164-.241h.054l-.109.193c0 .048-.054.193 0 .29v.096l.055.049.054-.049c.11-.048.11-.096.11-.096s-.11-.097-.055-.193c.054-.097.218-.097.218-.097.054-.145 0-.241 0-.241l.109.048c-.055-.048 0 .097 0 .29Zm.708-4.105c.164-.048.218-.145.382-.193.164-.048.273 0 .382 0 .108 0 .272-.145.38-.145.11 0 .165.049.274.049.054.096.381-.097.436-.097.054 0 .272 0 .218.193-.055.145-.164.58-.382 1.159a4.357 4.357 0 0 1-.272.531c-.11.193-.219.435-.382.628-.6.87-1.2.676-2.344 1.159-.926.386-1.308.628-1.417.772-.109-.096-.163-.096-.272-.144.163-.145.545-.387 1.308-.725.817-.386 2.18-.869 2.453-1.304v-.096c-.328.193-.6.29-.71.386-1.307.58-1.798.725-2.397 1.014-.273.145-.709.338-.981.531-.055-.048-.164-.096-.218-.144.272-.194.654-.387 1.035-.58.6-.241 1.09-.483 2.507-1.207a12.21 12.21 0 0 0 1.363-.821c0-.048 0-.097.055-.145-.491.242-2.072 1.014-2.399 1.16-1.308.579-1.253.53-1.853.82-.381.193-.763.386-1.035.58-.055-.049-.164-.097-.218-.145.327-.194.6-.387 1.035-.58.6-.29.654-.338 2.017-.917.654-.29 1.853-1.014 2.507-1.352v-.097c-.654.338-2.562 1.207-2.834 1.352-1.308.531-1.472.58-2.071.87-.327.144-.654.337-.927.482l-.163-.145a9.78 9.78 0 0 1 1.09-.627c.6-.29.708-.339 2.016-.918.164-.048.818-.386 1.417-.724.164-.097.382-.193.546-.29.163-.097.272-.193.381-.241l-.055-.049c-.272.097-.654.29-.763.338-.708.338-1.58.725-1.853.821-1.308.58-1.471.628-2.07.918-.328.145-.71.338-.927.53l-.164-.144a6.434 6.434 0 0 1 1.09-.628c.6-.29.709-.338 2.017-.917.218-.097.436-.193.6-.29.054 0 .653-.29 1.198-.628Zm-4.469-.29c1.254 0 2.507.145 3.652.483-.218.145-.545.29-.981.483-1.526.676-1.69.725-2.344 1.014a5.843 5.843 0 0 0-1.035.58s-.273-.338-.436-.435c-.164-.096-.545-.193-.654-.241-.218-.097-.273-.193-.6-.29-.272-.097-.49-.048-.654-.048a1.874 1.874 0 0 0-.6-.097c-.163 0-.38.097-.544.097-.218 0-.382-.049-.545-.049-.164.049-.382.194-.6.194-.163.048-.381 0-.49 0-.11.048-.382.241-.545.29-.11.048-.437.048-.382.29 0 .192.49.24.49.24s2.126.242 4.197 1.208c-.272.338-.6.676-.817 1.062a2.249 2.249 0 0 0-.49-.097c-.219 0-.437.097-.6.049-.327 0-.327-.049-.709 0-.272.048-.272.096-.49.145-.164.048-.327 0-.6.048-.109.048-.327.241-.49.29-.11.048-.328.048-.491.144-.109.097-.109.194-.381.29-.164.097-.273.048-.437.193-.109.194-.109.338-.381.532-.327.241-.327.434-.273.482.11.194.6 0 .6 0s1.744-.53 3.815-.627a27.945 27.945 0 0 0-1.253 2.51c-.055.146-.11.29-.164.387h-.054c-.11-.097-.11-.241-.055-.58.055-.338.382-1.014.49-1.158h-.108c-.11.144-.436.676-.491.772-.109.193-.163.242-.381.676-.055.097-.164.29-.327.29-.11 0-.218-.048-.218-.145 0-.048.054-.145.109-.145.272-.386.49-.772.545-.966h-.11s-.763 1.546-2.398 1.546c-.545 0-1.144-.242-1.144-.242s-.763.29-1.799.29c-.817 0-1.308-.145-1.526-.193 1.145-5.215 6.213-9.271 12.7-9.271ZM52.7 12.691l-.11-.048c-.654-.29-.872-1.11-1.199-1.835l-3.324-7.822h-3.161v.241l.163.048s.164.049.218.097c.164.096.327.29.11.773a.98.98 0 0 1-.11.434l-2.616 6.23c-.273.675-.49 1.545-1.145 1.834l-.218.097v.241h3.543v-.241l-.272-.097c-.327-.096-.382-.386-.055-1.207l.382-1.11h3.76c.11.24.218.579.382 1.062.163.483.436 1.11.054 1.303l-.218.097v.242H52.7v-.338Zm-4.58-4.007h-2.507l1.254-3.09 1.253 3.09ZM75.7 2.986v.241l.272.097c.437.144.382 1.062.382 1.641v6.036c0 .483 0 1.497-.382 1.642l-.272.097v.241h3.597v-.241l-.273-.097c-.436-.145-.381-1.159-.381-1.642V4.965c0-.82.109-1.545.381-1.641l.273-.097v-.241H75.7Zm-13.518 0v.241l.273.097c.436.144.382 1.062.382 1.641v6.036c0 .483 0 1.497-.382 1.642l-.273.097v.241h3.598v-.241l-.273-.097c-.436-.145-.381-1.159-.381-1.642V4.965c0-.82.109-1.545.381-1.641l.273-.097v-.241h-3.598Zm-20.219-.87c-.817-.724-2.07-1.11-3.433-1.11h-4.633v.241l.218.049c.6.241.545 1.545.545 2.51v6.568c0 .724 0 2.028-.545 2.221l-.218.097v.241h4.251v-.241l-.163-.097c-.764-.435-.764-1.4-.764-2.414V8.056l.437.145s.708.241 1.362.241c1.962 0 4.088-1.207 4.088-3.815 0-.965-.382-1.834-1.145-2.51Zm-4.142 5.409-.381.048h-.218v-4.49c.272-.049.6-.049 1.035-.049.872 0 1.58.193 1.962.58.382.337.545.772.545 1.4 0 1.497-1.526 2.414-2.943 2.51ZM99.9 1.006h-7.359v.29l.326.096c.49.193.49 1.304.49 1.932v7.243c0 .58 0 1.787-.49 1.98l-.327.096v.29h4.088v-.29l-.327-.096c-.49-.193-.49-1.352-.49-1.98V8.201h2.398s1.035-.097 1.199.29l.054.144.273.049.163-3.187h-.381l-.055.193c-.109.241-1.035.338-1.308.29h-2.398V3.034H98.7c.709 0 1.09.145 1.2.483l.053.193h.327l.763-2.849c.109.097-.872.145-1.144.145Zm-38.917 9.271-.054.048a.944.944 0 0 1-.218.145c-.654.387-1.744.821-2.834.821-.872 0-1.58-.241-2.18-.724-.709-.628-1.09-1.642-1.09-2.8 0-1.836 1.199-3.091 2.943-3.091.817 0 1.635.241 2.452.724l.218.145.436.241V3.18l-.327-.049c-1.09-.241-1.962-.386-2.725-.386-1.526 0-2.834.483-3.815 1.352-1.035.918-1.635 2.318-1.635 3.863 0 1.594.545 2.898 1.58 3.815 1.036.918 2.562 1.4 4.306 1.4.872 0 1.69-.144 2.344-.482h.054l.11-.049.054-.096.763-2.318h-.382v.048Zm27.851 0-.327.193c-.654.387-1.744.821-2.834.821-.872 0-1.58-.241-2.18-.724-.709-.628-1.09-1.642-1.09-2.8 0-1.836 1.199-3.091 2.943-3.091.818 0 1.635.241 2.453.724l.654.386V3.18l-.273-.049c-1.09-.241-1.962-.386-2.725-.386-1.526 0-2.834.483-3.815 1.352-1.036.918-1.635 2.318-1.635 3.863 0 1.594.545 2.898 1.58 3.815 1.036.918 2.562 1.4 4.306 1.4.872 0 1.69-.144 2.344-.482l.163-.049.818-2.414h-.382v.048ZM73.792 2.986h-6.595v.241l.273.097c.436.145.381 1.062.381 1.642V11c0 .483 0 1.498-.381 1.642l-.273.097v.241h3.598v-.241l-.273-.097c-.436-.145-.381-1.159-.381-1.642V9.02h1.962s.871-.048.98.242l.055.145.218.048.163-2.656h-.272l-.055.145c-.054.194-.871.29-1.09.242h-2.016V4.724h2.67c.6 0 .927.145 1.036.386l.054.145h.273l.654-2.366c.109 0-.763.097-.981.097Zm46.217 0v.241l.218.097c.491.29.545.724.545 1.545v4.587c-1.526-1.931-4.904-6.518-4.904-6.518h-2.616v.24l.218.098c.49.29.545.772.545 1.593v5.988c0 .82 0 1.448-.545 1.738l-.164.097v.241h3.325v-.241l-.218-.097c-.491-.097-.491-.917-.491-1.738V6.51l3.27 4.153c.599.772 1.58 1.883 2.616 2.172.818.242.981.194.981.194V4.917c0-.82 0-1.303.545-1.593l.218-.097v-.241h-3.543Zm13.408 1.448c-1.09-.965-2.725-1.497-4.741-1.497h-4.088v.242l.218.048.109.049c.49.144.381 1.158.381 1.69v6.036c0 .724 0 1.352-.599 1.69l-.164.096v.193h4.034c3.705 0 6.322-2.076 6.322-5.07 0-1.4-.491-2.607-1.472-3.477Zm-1.908 6.036c-.763.628-1.798 1.014-3.106 1.014-.272 0-.436-.048-.763-.096v-6.76c.436-.097.654-.145 1.036-.145 1.253 0 2.179.29 2.833.869.654.58.981 1.545.981 2.704 0 .966-.381 1.835-.981 2.414Zm-20.275.676V4.87c0-.724 0-1.4.545-1.545l.218-.049-.163-.29h-3.706v.242l.218.048c.545.193.49.966.49 1.497v4.78c0 .484 0 .725-.272 1.063-.436.531-1.254.87-2.126.87-.708 0-1.199-.146-1.58-.484-.491-.386-.709-1.11-.709-2.028v-4.25c0-.58 0-1.352.491-1.497l.218-.048v-.193h-3.815v.241l.218.048c.49.145.545 1.063.49 1.787v4.104c0 1.014 0 2.029.927 2.946.763.724 1.907 1.11 3.216 1.11.925 0 2.07-.434 2.888-1.013v.772h3.106v-.241l-.218-.049c-.436-.193-.49-.82-.436-1.545Zm31.83-1.206c0 .772-.381 1.544-1.09 2.124-.818.724-1.962 1.11-3.216 1.11a8.754 8.754 0 0 1-2.779-.434h-.055l-.109-.048v-.145l-.436-1.787-.054-.29-.055-.241h.273l.381.386c.818.676 1.962.966 2.998.966.708 0 1.744-.435 1.744-1.159 0-.82-.872-1.207-2.017-1.69-1.362-.58-2.997-1.304-2.997-3.139 0-2.076 2.18-2.8 4.033-2.8.817 0 1.58.096 2.289.337h.055l.163.049v2.173l-.381-.242-.382-.193c-.327-.193-1.145-.483-1.853-.483-.273 0-.872.049-1.254.387a.788.788 0 0 0-.272.627c0 .725.981 1.16 2.016 1.594 1.308.58 2.998 1.304 2.998 2.897Z"/>
    </g>
  </g>
  <defs>
    <clipPath id="a">
      <path fill="#fff" d="M0 0h143v13H0z" transform="translate(.357 .445)"/>
    </clipPath>
    <clipPath id="b">
      <path fill="#fff" d="M0 0h143v13H0z" transform="translate(.357 .445)"/>
    </clipPath>
  </defs>
</svg>
