<svg xmlns="http://www.w3.org/2000/svg" width="68" height="22" fill="none" viewBox="0 0 68 22">
  <g clip-path="url(#a)">
    <g clip-path="url(#b)">
      <path fill="#fff" fill-opacity=".8" d="m16.986 21.445 37.254-3.4H13.757l3.23 3.4ZM62.877 4.016a3.832 3.832 0 0 0-2.14.723V4.27h-2.502v11.563h2.503v-6.76a2.279 2.279 0 0 1 .118-.871c.095-.28.244-.535.437-.751a2.08 2.08 0 0 1 .684-.507 1.973 1.973 0 0 1 1.638 0c.259.118.492.29.685.507.192.216.341.472.437.75.095.28.135.577.118.873v6.801h2.502v-6.8c0-2.806-1.816-5.059-4.48-5.059Zm-10.413-.042c-2.906 0-4.965 2.678-4.965 6.079 0 3.57 2.584 6.078 5.207 6.078 1.332 0 2.987-.467 4.4-2.593l-2.22-1.36c-1.696 2.636-4.561 1.318-4.884-1.36h7.184c.646-4.081-1.897-6.844-4.722-6.844Zm-2.3 4.59c.524-2.677 3.995-2.847 4.48 0h-4.48Zm-8.38 3.874a4.14 4.14 0 0 0 .233 1.556c.177.497.446.951.793 1.336.346.385.763.692 1.225.904a3.6 3.6 0 0 0 1.463.328 5.073 5.073 0 0 0 2.421-.723l-1.614-2.296a1.47 1.47 0 0 1-.848.298 1.16 1.16 0 0 1-.48-.12 1.219 1.219 0 0 1-.395-.313 1.294 1.294 0 0 1-.244-.453 1.34 1.34 0 0 1-.051-.517V7.464h2.139V4.701h-2.14v-2.89h-2.502V4.7h-1.332v2.763h1.332v4.974Zm-6.434 3.694a3.832 3.832 0 0 0 2.14-.723v.425h2.502V4.271H37.49v6.802a2.3 2.3 0 0 1-.118.872c-.096.28-.245.535-.437.75a2.066 2.066 0 0 1-.685.507 1.974 1.974 0 0 1-1.638 0 2.068 2.068 0 0 1-.684-.506 2.195 2.195 0 0 1-.437-.751 2.278 2.278 0 0 1-.118-.872V4.27H30.87v6.802c0 2.806 1.816 5.059 4.48 5.059Z"/>
      <path fill="#fff" fill-opacity=".8" d="m23.968 11.115 3.714 4.761h3.47l-4.964-6.163 4.279-5.442h-3.471L23.969 8.31V.445h-2.543v15.431h2.543v-4.76Zm-6.458 4.209v.51h2.503V4.271h-2.502v.51a3.92 3.92 0 0 0-2.341-.807c-2.825 0-5.005 2.72-5.005 6.079 0 3.358 2.14 6.078 5.005 6.078.842 0 1.662-.283 2.34-.807Zm-4.802-5.229c0-1.828 1.009-3.273 2.421-3.273 1.413 0 2.382 1.445 2.382 3.273s-.969 3.273-2.381 3.273c-1.413 0-2.422-1.445-2.422-3.273Z"/>
      <path fill="#fff" fill-opacity=".8" d="M9.358 6.354A5.115 5.115 0 0 0 7.973 2.84a4.609 4.609 0 0 0-3.338-1.46H.357v14.453h2.624V11.37h1.816l3.188 4.463h3.27L7.38 10.435a4.872 4.872 0 0 0 1.466-1.784c.344-.71.52-1.499.512-2.297ZM4.676 8.65H2.98V4.144h1.695c.567 0 1.111.237 1.512.66.402.422.627.995.627 1.593 0 .597-.225 1.17-.627 1.593-.4.422-.945.66-1.512.66Z"/>
    </g>
  </g>
  <defs>
    <clipPath id="a">
      <path fill="#fff" d="M0 0h67v21H0z" transform="translate(.357 .445)"/>
    </clipPath>
    <clipPath id="b">
      <path fill="#fff" d="M0 0h67v21H0z" transform="translate(.357 .445)"/>
    </clipPath>
  </defs>
</svg>
